<svg width="24" height="24" viewBox="0 0 24 24" fill="none" xmlns="http://www.w3.org/2000/svg">
<rect x="0.671681" y="0.510548" width="23.1653" height="23.1653" rx="3.09958" stroke="#DED2C1" stroke-width="0.326271"/>
<path d="M10.1187 7.82202C9.26908 7.82202 8.45429 8.15952 7.85353 8.76027C7.25278 9.36103 6.91528 10.1758 6.91528 11.0254V14.7627C6.91528 15.6123 7.25278 16.4271 7.85353 17.0278C8.45429 17.6286 9.26908 17.9661 10.1187 17.9661H13.856C14.7056 17.9661 15.5204 17.6286 16.1211 17.0278C16.7219 16.4271 17.0594 15.6123 17.0594 14.7627V12.0932C17.0594 11.9516 17.0031 11.8158 16.903 11.7157C16.8029 11.6156 16.6671 11.5593 16.5255 11.5593H15.9916C15.85 11.5593 15.7142 11.5031 15.614 11.4029C15.5139 11.3028 15.4577 11.167 15.4577 11.0254C15.4577 10.1758 15.1202 9.36103 14.5194 8.76027C13.9187 8.15952 13.1039 7.82202 12.2543 7.82202H10.1187ZM10.1187 10.4915H12.2543C12.5479 10.4915 12.7882 10.7318 12.7882 11.0254C12.7882 11.3191 12.5479 11.5593 12.2543 11.5593H10.1187C9.82503 11.5593 9.58478 11.3191 9.58478 11.0254C9.58478 10.7318 9.82503 10.4915 10.1187 10.4915ZM10.1187 14.2288H13.856C14.1496 14.2288 14.3899 14.4691 14.3899 14.7627C14.3899 15.0563 14.1496 15.2966 13.856 15.2966H10.1187C9.82503 15.2966 9.58478 15.0563 9.58478 14.7627C9.58478 14.4691 9.82503 14.2288 10.1187 14.2288Z" fill="#DED2C1"/>
</svg>
