<svg width="25" height="24" viewBox="0 0 25 24" fill="none" xmlns="http://www.w3.org/2000/svg">
<rect x="0.790211" y="0.510548" width="23.1653" height="23.1653" rx="3.09958" stroke="#DED2C1" stroke-width="0.326271"/>
<path d="M9.95379 6.75415C8.05792 6.75415 6.5 8.30993 6.5 10.2079V15.0461C6.5 16.942 8.05578 18.4999 9.95379 18.4999H14.792C16.6879 18.4999 18.2458 16.9441 18.2458 15.0461V10.2085C18.2458 8.31207 16.69 6.75415 14.792 6.75415H9.95379ZM9.95379 7.82195H14.792C15.1054 7.82153 15.4159 7.88295 15.7056 8.00271C15.9952 8.12247 16.2584 8.2982 16.4801 8.51985C16.7017 8.74149 16.8774 9.00469 16.9972 9.29436C17.117 9.58403 17.1784 9.89449 17.178 10.2079V15.0461C17.1784 15.3596 17.117 15.67 16.9972 15.9597C16.8774 16.2494 16.7017 16.5126 16.4801 16.7342C16.2584 16.9559 15.9952 17.1316 15.7056 17.2514C15.4159 17.3711 15.1054 17.4325 14.792 17.4321H9.95432C9.64083 17.4326 9.33032 17.3712 9.04058 17.2515C8.75085 17.1318 8.48759 16.9561 8.26589 16.7344C8.04419 16.5128 7.8684 16.2495 7.74861 15.9598C7.62882 15.6701 7.56738 15.3596 7.5678 15.0461V10.2085C7.56731 9.89498 7.62868 9.58447 7.74841 9.29473C7.86813 9.005 8.04386 8.74174 8.26551 8.52004C8.48716 8.29834 8.75038 8.12255 9.04009 8.00276C9.32979 7.88297 9.64029 7.82153 9.95379 7.82195ZM15.5261 8.99012C15.4625 8.98983 15.3995 9.00215 15.3406 9.02636C15.2818 9.05057 15.2284 9.08619 15.1834 9.13116C15.1384 9.17614 15.1028 9.22957 15.0786 9.28839C15.0544 9.3472 15.0421 9.41023 15.0424 9.47383C15.0424 9.74291 15.257 9.95754 15.5261 9.95754C15.5897 9.9579 15.6528 9.94563 15.7117 9.92145C15.7706 9.89727 15.8241 9.86167 15.8691 9.81669C15.9141 9.77171 15.9498 9.71825 15.974 9.6594C15.9983 9.60055 16.0106 9.53748 16.0103 9.47383C16.0106 9.41018 15.9983 9.34711 15.974 9.28826C15.9498 9.22941 15.9141 9.17595 15.8691 9.13097C15.8241 9.08599 15.7706 9.05038 15.7117 9.02621C15.6528 9.00203 15.5897 8.98976 15.5261 8.99012ZM12.3729 9.42364C10.611 9.42364 9.16949 10.8652 9.16949 12.627C9.16949 14.3889 10.611 15.8304 12.3729 15.8304C14.1347 15.8304 15.5763 14.3889 15.5763 12.627C15.5763 10.8652 14.1347 9.42364 12.3729 9.42364ZM12.3729 10.4914C13.5597 10.4914 14.5085 11.4402 14.5085 12.627C14.5085 13.8139 13.5597 14.7626 12.3729 14.7626C11.186 14.7626 10.2373 13.8139 10.2373 12.627C10.2373 11.4402 11.186 10.4914 12.3729 10.4914Z" fill="#DED2C1"/>
</svg>
