<svg width="24" height="24" viewBox="0 0 24 24" fill="none" xmlns="http://www.w3.org/2000/svg">
<rect x="0.417408" y="0.510548" width="23.1653" height="23.1653" rx="3.09958" stroke="#DED2C1" stroke-width="0.326271"/>
<path d="M8.60604 5.68652C8.42083 5.68638 8.2374 5.72273 8.06624 5.7935C7.89508 5.86426 7.73954 5.96805 7.6085 6.09894C7.47746 6.22983 7.37349 6.38526 7.30253 6.55634C7.23157 6.72742 7.19502 6.9108 7.19495 7.09602C7.19495 7.87551 7.82655 8.52153 8.60444 8.52153C9.3834 8.52153 10.0155 7.87551 10.0155 7.09708C10.0157 6.9119 9.97932 6.7285 9.90855 6.55737C9.83778 6.38624 9.73398 6.23073 9.60308 6.09973C9.47218 5.96874 9.31675 5.86482 9.14568 5.79392C8.9746 5.72302 8.79123 5.68652 8.60604 5.68652ZM15.4891 9.42381C14.3043 9.42381 13.6268 10.0431 13.3011 10.6593H13.267V9.58986H10.9322V17.4323H13.3652V13.5503C13.3652 12.5274 13.4421 11.5386 14.708 11.5386C15.9557 11.5386 15.9738 12.7052 15.9738 13.6149V17.4323H18.4068V13.1248C18.4068 11.017 17.9535 9.42381 15.4891 9.42381ZM7.38875 9.58932V17.4323H9.82333V9.58932H7.38875Z" fill="#DED2C1"/>
</svg>
