<svg width="25" height="24" viewBox="0 0 25 24" fill="none" xmlns="http://www.w3.org/2000/svg">
<path d="M19.034 7.98975C18.5542 8.20214 18.0453 8.34126 17.5242 8.40245C18.0728 8.07393 18.4834 7.55728 18.6795 6.94864C18.1635 7.25443 17.5994 7.47035 17.0111 7.58719C16.6507 7.2019 16.1827 6.93396 15.668 6.81821C15.1533 6.70246 14.6156 6.74425 14.125 6.93814C13.6343 7.13204 13.2134 7.46908 12.9168 7.90543C12.6203 8.34178 12.4619 8.85725 12.4623 9.38482C12.4623 9.59144 12.4852 9.79165 12.5317 9.98332C11.486 9.93186 10.463 9.66064 9.52918 9.18734C8.59538 8.71405 7.77178 8.0493 7.11207 7.23642C6.87768 7.63764 6.75473 8.09421 6.75596 8.55888C6.75596 9.47025 7.21885 10.2754 7.92573 10.7468C7.5082 10.7336 7.09993 10.6204 6.73514 10.4168V10.4505C6.73478 11.0576 6.94465 11.6462 7.32911 12.1161C7.71356 12.586 8.24886 12.9083 8.84404 13.0281C8.45699 13.1343 8.05073 13.15 7.65665 13.0741C7.82451 13.5964 8.15132 14.0532 8.59144 14.3808C9.03156 14.7083 9.56299 14.8902 10.1115 14.9011C9.56621 15.3291 8.94185 15.6453 8.27418 15.8318C7.6065 16.0182 6.90862 16.0711 6.22046 15.9875C7.42201 16.7608 8.82094 17.1714 10.2498 17.1701C15.0858 17.1701 17.7308 13.1638 17.7308 9.68915C17.7308 9.57703 17.7265 9.4617 17.7222 9.34905C18.2361 8.97695 18.6802 8.51696 19.034 7.99028V7.98975Z" fill="#DED2C1"/>
<rect x="1.04461" y="0.510548" width="23.1653" height="23.1653" rx="3.09958" stroke="#DED2C1" stroke-width="0.326271"/>
</svg>
